HIERARCHY
ROOT CG
{
	OFFSET 0.000000 0.000000 27.772259
	CHANNELS 6 Xposition Yposition Zposition Xrotation Yrotation Zrotation
	JOINT Pelvis
	{
		OFFSET 0.000000 0.000000 0.000000
		CHANNELS 3 Xrotation Yrotation Zrotation
		JOINT Spine
		{
			OFFSET -0.000017 -10.490843 -0.495483
			CHANNELS 3 Xrotation Yrotation Zrotation
			JOINT Spine1
			{
				OFFSET -0.000010 -22.678980 0.018061
				CHANNELS 3 Xrotation Yrotation Zrotation
				JOINT Spine2
				{
					OFFSET -0.000010 -22.678967 0.018061
					CHANNELS 3 Xrotation Yrotation Zrotation
					JOINT Spine3
					{
						OFFSET -0.000010 -22.678982 0.018059
						CHANNELS 3 Xrotation Yrotation Zrotation
						JOINT Neck
						{
							OFFSET -0.000012 -22.678986 -1.289251
							CHANNELS 3 Xrotation Yrotation Zrotation
							JOINT Neck1
							{
								OFFSET -0.000007 -16.255905 0.012947
								CHANNELS 3 Xrotation Yrotation Zrotation
								JOINT Head
								{
									OFFSET -0.000005 -10.784607 -0.287502
									CHANNELS 3 Xrotation Yrotation Zrotation
									JOINT Jaw01
									{
										OFFSET 0.000031 7.782959 5.073944
										CHANNELS 3 Xrotation Yrotation Zrotation
										JOINT Jaw02
										{
											OFFSET 0.000004 -34.927139 -18.883980
											CHANNELS 3 Xrotation Yrotation Zrotation
											End Site
											{
												OFFSET -0.000170 8.372803 -38.812450
											}
										}
									}
									JOINT Nose
									{
										OFFSET -0.000002 -25.700912 7.222265
										CHANNELS 3 Xrotation Yrotation Zrotation
										End Site
										{
											OFFSET -0.000090 0.641281 -21.715439
										}
									}
									JOINT L_EyeSocket
									{
										OFFSET 7.352326 -19.832718 14.164183
										CHANNELS 3 Xrotation Yrotation Zrotation
										JOINT L_Eye
										{
											OFFSET -0.000868 -0.001053 0.016003
											CHANNELS 3 Xrotation Yrotation Zrotation
											End Site
											{
												OFFSET -0.001505 -0.001846 0.027969
											}
										}
										JOINT L_Eyelid_Top
										{
											OFFSET -0.001004 -0.002625 0.032516
											CHANNELS 3 Xrotation Yrotation Zrotation
											End Site
											{
												OFFSET -0.013218 0.005753 0.024086
											}
										}
										JOINT L_Eyelid_Bottom
										{
											OFFSET -0.001194 -0.002777 0.035381
											CHANNELS 3 Xrotation Yrotation Zrotation
											End Site
											{
												OFFSET -0.010032 0.008636 -0.024754
											}
										}
									}
									JOINT R_EyeSocket
									{
										OFFSET -7.352252 -19.832748 14.164206
										CHANNELS 3 Xrotation Yrotation Zrotation
										JOINT R_Eye
										{
											OFFSET 0.000875 -0.001068 0.015991
											CHANNELS 3 Xrotation Yrotation Zrotation
											End Site
											{
												OFFSET 0.001505 -0.001846 0.027962
											}
										}
										JOINT R_Eyelid_Top
										{
											OFFSET 0.001021 -0.002625 0.032516
											CHANNELS 3 Xrotation Yrotation Zrotation
											End Site
											{
												OFFSET 0.013214 0.005753 0.024078
											}
										}
										JOINT R_Eyelid_Bottom
										{
											OFFSET 0.001170 -0.002762 0.035366
											CHANNELS 3 Xrotation Yrotation Zrotation
											End Site
											{
												OFFSET 0.010029 0.008636 -0.024746
											}
										}
									}
								}
								JOINT Neck_Fat
								{
									OFFSET 0.000044 -9.595100 -17.491512
									CHANNELS 3 Xrotation Yrotation Zrotation
									End Site
									{
										OFFSET -0.000036 15.369423 -0.000007
									}
								}
							}
						}
						JOINT L_Clavicle
						{
							OFFSET 4.567107 -11.666092 -3.750029
							CHANNELS 3 Xrotation Yrotation Zrotation
							JOINT L_UpperArm
							{
								OFFSET 20.725666 -0.000053 -0.000032
								CHANNELS 3 Xrotation Yrotation Zrotation
								JOINT L_Forearm
								{
									OFFSET 5.265112 -0.585754 -20.155697
									CHANNELS 3 Xrotation Yrotation Zrotation
									JOINT L_Hand
									{
										OFFSET 2.653017 -10.877708 -16.383667
										CHANNELS 3 Xrotation Yrotation Zrotation
										JOINT L_Finger0
										{
											OFFSET -4.206146 -4.328911 -5.034346
											CHANNELS 3 Xrotation Yrotation Zrotation
											JOINT L_Finger01
											{
												OFFSET 0.084272 -1.788536 -4.181065
												CHANNELS 3 Xrotation Yrotation Zrotation
												End Site
												{
													OFFSET 3.261885 3.094673 -0.685818
												}
											}
										}
										JOINT L_Finger1
										{
											OFFSET -1.039112 -6.775742 -3.499998
											CHANNELS 3 Xrotation Yrotation Zrotation
											JOINT L_Finger11
											{
												OFFSET 1.320335 -3.040672 -6.425793
												CHANNELS 3 Xrotation Yrotation Zrotation
												End Site
												{
													OFFSET -1.244579 6.832077 -2.013330
												}
											}
										}
										JOINT L_Finger2
										{
											OFFSET 2.531296 -5.656487 -3.286415
											CHANNELS 3 Xrotation Yrotation Zrotation
											JOINT L_Finger21
											{
												OFFSET 1.991665 -2.402016 -5.957748
												CHANNELS 3 Xrotation Yrotation Zrotation
												End Site
												{
													OFFSET -2.793068 5.800873 -1.944178
												}
											}
										}
										JOINT L_Finger3
										{
											OFFSET 5.474075 -3.302338 -2.655975
											CHANNELS 3 Xrotation Yrotation Zrotation
											JOINT L_Finger31
											{
												OFFSET 2.026943 -1.267532 -5.961166
												CHANNELS 3 Xrotation Yrotation Zrotation
												End Site
												{
													OFFSET -4.375172 4.343658 -1.800320
												}
											}
										}
										JOINT L_Finger4
										{
											OFFSET 4.825745 1.085899 -2.321970
											CHANNELS 3 Xrotation Yrotation Zrotation
											JOINT L_Finger41
											{
												OFFSET 3.358261 -1.829651 -3.744434
												CHANNELS 3 Xrotation Yrotation Zrotation
												End Site
												{
													OFFSET -3.843296 2.955200 -2.267633
												}
											}
										}
									}
								}
							}
						}
						JOINT R_Clavicle
						{
							OFFSET -4.567111 -11.666092 -3.750036
							CHANNELS 3 Xrotation Yrotation Zrotation
							JOINT R_UpperArm
							{
								OFFSET -20.725670 -0.000031 0.000038
								CHANNELS 3 Xrotation Yrotation Zrotation
								JOINT R_Forearm
								{
									OFFSET -5.265285 -0.585762 -20.155655
									CHANNELS 3 Xrotation Yrotation Zrotation
									JOINT R_Hand
									{
										OFFSET -2.653147 -10.877739 -16.383663
										CHANNELS 3 Xrotation Yrotation Zrotation
										JOINT R_Finger0
										{
											OFFSET 4.206116 -4.328888 -5.034388
											CHANNELS 3 Xrotation Yrotation Zrotation
											JOINT R_Finger01
											{
												OFFSET -0.084324 -1.788544 -4.181051
												CHANNELS 3 Xrotation Yrotation Zrotation
												End Site
												{
													OFFSET -3.261890 3.094666 -0.685791
												}
											}
										}
										JOINT R_Finger1
										{
											OFFSET 1.039101 -6.775711 -3.499994
											CHANNELS 3 Xrotation Yrotation Zrotation
											JOINT R_Finger11
											{
												OFFSET -1.320374 -3.040672 -6.425779
												CHANNELS 3 Xrotation Yrotation Zrotation
												End Site
												{
													OFFSET 1.244556 6.832077 -2.013342
												}
											}
										}
										JOINT R_Finger2
										{
											OFFSET -2.531307 -5.656464 -3.286409
											CHANNELS 3 Xrotation Yrotation Zrotation
											JOINT R_Finger21
											{
												OFFSET -1.991707 -2.402016 -5.957708
												CHANNELS 3 Xrotation Yrotation Zrotation
												End Site
												{
													OFFSET 2.793037 5.800858 -1.944197
												}
											}
										}
										JOINT R_Finger3
										{
											OFFSET -5.474091 -3.302330 -2.655947
											CHANNELS 3 Xrotation Yrotation Zrotation
											JOINT R_Finger31
											{
												OFFSET -2.026993 -1.267532 -5.961157
												CHANNELS 3 Xrotation Yrotation Zrotation
												End Site
												{
													OFFSET 4.375156 4.343674 -1.800358
												}
											}
										}
										JOINT R_Finger4
										{
											OFFSET -4.825756 1.085922 -2.321926
											CHANNELS 3 Xrotation Yrotation Zrotation
											JOINT R_Finger41
											{
												OFFSET -3.358307 -1.829651 -3.744390
												CHANNELS 3 Xrotation Yrotation Zrotation
												End Site
												{
													OFFSET 3.843273 2.955208 -2.267666
												}
											}
										}
									}
								}
							}
						}
					}
				}
			}
		}
		JOINT Tail01
		{
			OFFSET -0.000010 10.922326 -0.017508
			CHANNELS 3 Xrotation Yrotation Zrotation
			JOINT Tail02
			{
				OFFSET -0.000022 21.986111 0.000013
				CHANNELS 3 Xrotation Yrotation Zrotation
				JOINT Tail03
				{
					OFFSET -0.000022 21.986118 0.000002
					CHANNELS 3 Xrotation Yrotation Zrotation
					JOINT Tail04
					{
						OFFSET -0.000022 21.986122 0.000004
						CHANNELS 3 Xrotation Yrotation Zrotation
						JOINT Tail05
						{
							OFFSET -0.000022 21.986099 0.000010
							CHANNELS 3 Xrotation Yrotation Zrotation
							JOINT Tail06
							{
								OFFSET -0.000022 21.986099 0.000006
								CHANNELS 3 Xrotation Yrotation Zrotation
								JOINT Tail07
								{
									OFFSET -0.000022 21.986099 0.000000
									CHANNELS 3 Xrotation Yrotation Zrotation
									JOINT Tail08
									{
										OFFSET -0.000022 21.984848 0.000050
										CHANNELS 3 Xrotation Yrotation Zrotation
										JOINT Tail09
										{
											OFFSET -0.000025 21.926025 -1.606211
											CHANNELS 3 Xrotation Yrotation Zrotation
											JOINT Tail10
											{
												OFFSET -0.000027 21.750092 -3.203882
												CHANNELS 3 Xrotation Yrotation Zrotation
												End Site
												{
													OFFSET -0.000036 4.767395 21.461668
												}
											}
										}
									}
								}
							}
						}
					}
				}
			}
		}
		JOINT L_Thigh
		{
			OFFSET 24.788780 0.000021 -0.000034
			CHANNELS 3 Xrotation Yrotation Zrotation
			JOINT L_Calf
			{
				OFFSET 4.720837 4.161326 -21.049969
				CHANNELS 3 Xrotation Yrotation Zrotation
				JOINT L_Foot
				{
					OFFSET 2.154160 21.114433 -11.949743
					CHANNELS 3 Xrotation Yrotation Zrotation
					JOINT L_Toe0
					{
						OFFSET 4.557564 9.251841 -8.735286
						CHANNELS 3 Xrotation Yrotation Zrotation
						End Site
						{
							OFFSET 4.555542 -12.646044 1.018752
						}
					}
					JOINT L_Toe1
					{
						OFFSET 2.346291 5.845602 -11.687160
						CHANNELS 3 Xrotation Yrotation Zrotation
						End Site
						{
							OFFSET 5.347954 -12.298279 1.365644
						}
					}
					JOINT L_Toe2
					{
						OFFSET -0.356020 3.902458 -12.541145
						CHANNELS 3 Xrotation Yrotation Zrotation
						End Site
						{
							OFFSET 3.916235 -12.806129 1.542549
						}
					}
					JOINT L_Toe3
					{
						OFFSET -4.603447 3.183935 -12.435249
						CHANNELS 3 Xrotation Yrotation Zrotation
						End Site
						{
							OFFSET 3.810858 -12.587427 2.957583
						}
					}
					JOINT L_Toe4
					{
						OFFSET -7.144358 6.231495 -10.072764
						CHANNELS 3 Xrotation Yrotation Zrotation
						End Site
						{
							OFFSET 3.810858 -12.587425 2.957585
						}
					}
				}
			}
		}
		JOINT R_Thigh
		{
			OFFSET -24.788780 -0.000024 0.000034
			CHANNELS 3 Xrotation Yrotation Zrotation
			JOINT R_Calf
			{
				OFFSET -4.720922 4.161324 -21.049952
				CHANNELS 3 Xrotation Yrotation Zrotation
				JOINT R_Foot
				{
					OFFSET -2.154238 21.114414 -11.949730
					CHANNELS 3 Xrotation Yrotation Zrotation
					JOINT R_Toe0
					{
						OFFSET -4.557598 9.251823 -8.735270
						CHANNELS 3 Xrotation Yrotation Zrotation
						End Site
						{
							OFFSET -4.555508 -12.646051 1.018756
						}
					}
					JOINT R_Toe1
					{
						OFFSET -2.346325 5.845589 -11.687157
						CHANNELS 3 Xrotation Yrotation Zrotation
						End Site
						{
							OFFSET -5.347919 -12.298286 1.365654
						}
					}
					JOINT R_Toe2
					{
						OFFSET 0.355980 3.902462 -12.541145
						CHANNELS 3 Xrotation Yrotation Zrotation
						End Site
						{
							OFFSET -3.916199 -12.806131 1.542559
						}
					}
					JOINT R_Toe3
					{
						OFFSET 4.603411 3.183941 -12.435266
						CHANNELS 3 Xrotation Yrotation Zrotation
						End Site
						{
							OFFSET -3.810825 -12.587429 2.957591
						}
					}
					JOINT R_Toe4
					{
						OFFSET 7.144323 6.231503 -10.072779
						CHANNELS 3 Xrotation Yrotation Zrotation
						End Site
						{
							OFFSET -3.810825 -12.587433 2.957584
						}
					}
				}
			}
		}
	}
}
MOTION
Frames: 4
Frame Time: 0.033333
0.000000 0.000000 37.185139 -0.000000 180.000032 -0.000184 -0.000012 15.910050 0.000016 0.000004 -5.910115 0.000001 0.004445 16.666681 -0.015469 0.005320 16.666695 -0.018521 0.046868 16.666676 -0.031829 0.000000 -0.000000 0.009508 0.012935 22.499982 -0.018875 0.222230 3.964481 0.405856 -11.945349 0.000021 0.000003 -10.664676 -0.000007 -0.000041 0.000020 -0.000000 0.000000 0.000000 -0.000000 -0.000000 0.000140 -0.000087 0.000006 0.000006 0.000000 0.000000 0.000003 -0.000007 0.000012 0.000000 0.000000 -0.000007 0.000140 0.000088 -0.000023 0.000003 -0.000001 -0.000000 -0.000000 0.000004 -0.000002 0.000000 0.000001 0.000000 -0.000000 -0.000004 0.000000 105.906926 -9.054632 20.181408 -0.000019 -0.000010 -0.000002 -0.000008 0.000005 -0.000005 0.000004 0.000001 0.000002 -0.000000 0.000001 0.000001 0.000001 -0.000006 0.000005 0.000001 0.000003 -0.000000 -0.000004 0.000000 -0.000001 0.000003 -0.000006 0.000004 -0.000000 0.000005 0.000001 0.000008 -0.000005 -0.000001 0.000001 0.000003 -0.000002 -0.000006 -0.000004 0.000005 -0.003760 -3.752047 -26.978832 66.673937 51.090597 23.133678 -17.666940 -3.461268 4.226972 -7.807907 -51.019700 -32.245456 -0.000012 0.000008 0.000006 0.000005 -0.000000 -0.000004 0.001747 0.006056 0.004375 0.000001 -0.000004 0.000001 0.000005 -0.000004 -0.000000 0.000003 0.000001 -0.000002 0.000004 0.000005 -0.000001 0.000007 0.000005 -0.000002 0.000000 0.000005 -0.000000 -0.000000 -0.000000 0.000001 0.001519 -14.647143 0.000093 0.001767 -14.108158 0.001556 0.001739 -14.108162 0.001443 -0.008865 -14.108168 0.002309 -0.007234 -14.108152 0.003267 -0.015248 -14.108156 0.001640 -0.015576 -14.108182 0.010715 4.348568 -14.067795 1.077177 4.476237 -13.949737 2.129589 5.045687 -13.743054 3.219136 52.432463 -12.003315 17.322862 0.948681 0.028404 0.217802 55.714509 -6.593178 -9.791490 0.000003 -0.000011 0.000002 0.000003 -0.000000 -0.000003 -0.000014 -0.000003 0.000006 0.000000 0.000000 0.000001 0.000003 -0.000002 -0.000000 15.902422 -23.221960 -7.721370 -1.961611 0.047263 0.451613 65.405646 -11.535588 18.672737 -0.000012 -0.000008 -0.000006 -0.000000 -0.000003 -0.000000 0.000000 -0.000001 0.000000 -0.000000 -0.000002 -0.000004 -0.000013 0.000001 0.000002 
0.000000 0.000000 36.437920 -0.000034 198.960050 -0.000181 -0.000017 14.977039 0.000037 0.000004 -4.977111 0.000000 0.004427 16.763987 -0.015320 0.005267 16.764006 -0.018230 0.047168 16.763989 -0.031896 0.000397 -2.054486 0.011106 0.013273 20.894985 -0.017247 0.212785 6.565800 0.390155 -11.902184 0.000021 0.000003 -10.666070 -0.000008 -0.000042 0.000020 -0.000002 -0.000000 0.000001 0.000001 -0.000007 0.000140 -0.000085 -0.000001 0.000004 0.000004 -0.000004 0.000003 0.000000 0.000003 0.000001 0.000000 -0.000003 0.000140 0.000087 -0.000020 0.000003 -0.000001 -0.000000 -0.000000 0.000004 0.000000 -0.000000 0.000001 -0.000000 0.000000 -0.000000 0.000000 106.072353 -8.742295 20.374598 -0.000021 -0.000011 0.000001 -0.000002 0.000007 -0.000006 0.000003 0.000004 -0.000001 -0.000001 0.000001 -0.000001 0.000001 -0.000001 0.000003 0.000000 0.000001 -0.000000 0.000001 0.000004 -0.000000 0.000001 -0.000003 0.000006 0.000004 0.000007 -0.000000 0.000008 -0.000006 0.000001 -0.000002 0.000001 -0.000003 -0.000010 -0.000008 0.000008 -0.004932 -3.839278 -26.992308 64.256794 48.841945 25.523951 -16.348503 -3.157949 3.948396 -7.909724 -51.164879 -32.411143 -0.000011 0.000003 0.000007 0.000001 -0.000003 0.000000 0.001747 0.006058 0.004372 0.000004 0.000005 0.000001 0.000007 -0.000004 -0.000003 -0.000005 -0.000004 -0.000001 0.000004 0.000003 -0.000000 0.000012 0.000001 -0.000007 -0.000002 0.000003 -0.000001 0.000003 0.000009 -0.000004 0.001322 -13.817750 -0.000043 0.001922 -14.167133 0.002136 0.001896 -14.167080 0.002030 -0.008385 -14.167002 0.002932 -0.007727 -14.166863 0.003947 -0.015462 -14.166726 0.002721 -0.015811 -14.166568 0.011637 4.309624 -14.126748 1.069615 4.438591 -14.008995 2.125411 4.994363 -13.804284 3.210636 52.594680 -11.257932 16.601473 1.171836 0.035607 0.268968 54.812780 -7.097736 -10.009588 0.000004 -0.000010 -0.000001 0.000003 -0.000001 -0.000005 -0.000012 -0.000004 0.000006 -0.000001 -0.000000 -0.000000 0.000000 -0.000003 -0.000003 15.238517 -23.361931 -9.089670 -3.314424 0.070841 0.763843 64.613234 -11.119743 18.491858 -0.000011 -0.000008 -0.000008 0.000001 -0.000002 -0.000002 -0.000003 -0.000001 -0.000001 0.000003 -0.000001 -0.000004 -0.000017 -0.000002 -0.000001 
0.000000 0.000000 34.566963 -0.000078 216.480045 -0.000210 -0.000014 12.570735 0.000022 -0.000001 -2.570959 0.000000 0.004398 16.970761 -0.015037 0.005190 16.970773 -0.017751 0.047647 16.970763 -0.031781 0.001185 -5.368267 0.012691 0.013208 18.155278 -0.015146 0.192844 10.280185 0.361777 -11.831876 0.000019 0.000003 -10.669769 -0.000008 -0.000042 0.000021 0.000001 -0.000000 0.000000 0.000001 -0.000002 0.000139 -0.000087 0.000002 0.000001 0.000005 -0.000003 0.000003 0.000001 0.000009 0.000001 -0.000003 -0.000000 0.000140 0.000089 -0.000019 0.000003 -0.000005 0.000005 0.000002 0.000004 0.000005 0.000000 0.000001 0.000000 -0.000007 0.000000 -0.000000 106.437051 -8.059033 20.798107 -0.000019 -0.000011 0.000003 -0.000004 0.000005 -0.000003 0.000008 -0.000001 -0.000003 -0.000000 -0.000003 -0.000005 0.000004 -0.000009 0.000002 0.000001 0.000000 -0.000002 0.000001 -0.000002 -0.000003 0.000001 -0.000009 0.000006 0.000004 0.000006 -0.000001 0.000007 -0.000006 0.000002 0.000005 0.000005 -0.000003 -0.000005 -0.000004 0.000012 0.004266 -4.056876 -27.024839 61.102333 45.538206 28.832281 -14.460233 -2.735280 3.537970 -8.169227 -51.526069 -32.816030 -0.000005 0.000006 0.000001 -0.000000 0.000000 0.000002 0.001755 0.006055 0.004373 0.000008 0.000004 0.000003 0.000007 -0.000003 -0.000003 -0.000001 -0.000004 0.000003 0.000005 0.000005 -0.000004 0.000009 0.000003 -0.000005 0.000003 0.000001 -0.000002 -0.000004 0.000003 0.000004 0.001054 -12.284888 -0.000007 0.002049 -14.301930 0.002523 0.002025 -14.301862 0.002425 -0.007666 -14.301754 0.003355 -0.008126 -14.301588 0.004427 -0.015442 -14.301402 0.003567 -0.015793 -14.301175 0.012185 4.295158 -14.261351 1.074630 4.426688 -14.142894 2.140017 4.961452 -13.938120 3.229322 52.429697 -9.661892 14.663525 1.396442 0.043065 0.320437 53.990549 -7.544055 -10.197579 0.000001 -0.000006 -0.000001 -0.000001 0.000002 -0.000003 -0.000016 -0.000004 0.000002 -0.000001 0.000001 0.000003 0.000001 -0.000001 0.000003 14.502788 -21.895860 -10.680559 -4.447312 0.084898 1.025660 63.964544 -10.747373 18.388036 -0.000007 -0.000008 -0.000003 0.000005 0.000001 -0.000002 0.000002 -0.000002 -0.000005 0.000001 -0.000002 -0.000007 -0.000014 -0.000002 0.000001 
0.000000 0.000000 32.128334 -0.000133 233.520070 -0.000245 -0.000009 9.280831 0.000021 0.000007 0.719144 -0.000000 0.004327 17.192098 -0.014612 0.005050 17.192109 -0.017057 0.048296 17.192095 -0.031439 0.002325 -9.394317 0.014268 0.012995 14.720542 -0.012676 0.163552 13.994661 0.319525 -11.736564 0.000021 0.000003 -10.675768 -0.000010 -0.000043 0.000020 0.000000 0.000000 0.000001 0.000001 -0.000005 0.000142 -0.000083 -0.000001 0.000005 0.000002 -0.000004 0.000005 -0.000002 0.000010 0.000000 0.000001 -0.000003 0.000140 0.000094 -0.000023 0.000003 -0.000000 -0.000004 -0.000001 0.000005 -0.000001 0.000000 -0.000003 -0.000000 -0.000000 0.000002 -0.000000 106.792794 -7.378174 21.217025 -0.000021 -0.000007 0.000000 -0.000003 0.000004 -0.000006 0.000003 0.000002 -0.000002 0.000001 0.000001 -0.000001 0.000002 -0.000008 0.000005 -0.000006 -0.000001 -0.000001 -0.000001 0.000000 -0.000003 0.000002 -0.000007 0.000006 0.000004 0.000007 -0.000000 0.000007 -0.000006 -0.000001 -0.000003 0.000002 0.000002 -0.000006 -0.000004 0.000012 -0.007464 -4.337232 -27.068902 57.907437 41.483055 32.113009 -12.182502 -2.244440 3.025571 -8.538264 -51.996280 -33.379889 -0.000015 0.000007 0.000009 -0.000000 0.000003 -0.000003 0.001750 0.006058 0.004375 0.000005 -0.000003 -0.000002 0.000005 -0.000004 -0.000008 0.000003 0.000001 -0.000004 0.000002 0.000005 -0.000004 0.000004 0.000000 -0.000001 0.000003 0.000010 0.000001 -0.000007 0.000003 0.000004 0.001026 -10.342748 0.001534 0.002142 -14.486988 0.002717 0.002117 -14.486922 0.002618 -0.007242 -14.486840 0.003577 -0.008426 -14.486700 0.004692 -0.015200 -14.486548 0.004184 -0.015551 -14.486370 0.012351 4.298554 -14.446084 1.088466 4.433512 -14.326235 2.167623 4.942529 -14.120065 3.266410 52.137518 -7.555371 12.023391 1.592206 0.049721 0.365277 53.320066 -7.899492 -10.345439 0.000002 -0.000011 0.000006 0.000001 0.000001 -0.000002 -0.000015 -0.000002 0.000013 -0.000001 0.000002 0.000006 -0.000001 0.000001 0.000004 13.808266 -19.353423 -12.233956 -5.312254 0.092152 1.225709 63.478262 -10.449086 18.338576 -0.000008 -0.000006 -0.000010 -0.000001 0.000002 0.000001 -0.000002 0.000000 -0.000001 -0.000001 -0.000001 -0.000006 -0.000011 0.000003 0.000002 
